<?xml version="1.0" encoding="utf-8"?>
<!-- Generator: Adobe Illustrator 15.1.0, SVG Export Plug-In . SVG Version: 6.00 Build 0)  -->
<!DOCTYPE svg PUBLIC "-//W3C//DTD SVG 1.1//EN" "http://www.w3.org/Graphics/SVG/1.1/DTD/svg11.dtd">
<svg version="1.1" id="Layer_1" xmlns="http://www.w3.org/2000/svg" xmlns:xlink="http://www.w3.org/1999/xlink" x="0px" y="0px"
	 width="427.551px" height="208.164px" viewBox="0 0 427.551 208.164" enable-background="new 0 0 427.551 208.164"
	 xml:space="preserve">
<g>
	<g>
		<linearGradient id="SVGID_1_" gradientUnits="userSpaceOnUse" x1="265.374" y1="92.6489" x2="265.374" y2="43.3109">
			<stop  offset="0" style="stop-color:#4A02A6"/>
			<stop  offset="1" style="stop-color:#7236C7"/>
		</linearGradient>
		<path fill="url(#SVGID_1_)" d="M241.285,98.107h14.586V86.731h-14.586V98.107z M163.734,52.315h4.62v45.792h14.587V52.315h16.973
			v-7.249h-36.18V52.315z M345.42,45.066h-14.586v9.999h14.586V45.066z M151.381,52.315h6.854v-7.249h-6.854V52.315z
			 M283.365,45.066h-69.572c-1.768,0-3.287,0.634-4.553,1.9c-1.268,1.269-1.9,2.815-1.9,4.642v46.499h14.586V52.315h19.359v26.416
			h14.586V52.315h19.449v45.792h14.498V51.608c0-1.826-0.635-3.373-1.9-4.642C286.648,45.7,285.133,45.066,283.365,45.066z
			 M371.322,45.066c-1.768,0-3.285,0.634-4.553,1.9c-1.268,1.269-1.9,2.815-1.9,4.642v39.339h14.498V45.066H371.322z
			 M309.574,46.966c-1.268-1.267-2.816-1.9-4.641-1.9h-8.045v45.881h14.586V51.608C311.475,49.782,310.84,48.235,309.574,46.966z
			 M330.834,63.065v27.882h14.586V63.065H330.834z M345.42,98.107h19.449v-7.16H345.42V98.107z M311.475,98.107h19.359v-7.16
			h-19.359V98.107z"/>
	</g>
	<linearGradient id="SVGID_2_" gradientUnits="userSpaceOnUse" x1="184.1333" y1="51.8154" x2="184.1333" y2="86.3154">
		<stop  offset="0" style="stop-color:#4A02A6"/>
		<stop  offset="1" style="stop-color:#7236C7"/>
	</linearGradient>
	<polygon fill="url(#SVGID_2_)" points="199.914,45.066 185.216,45.066 168.353,97.725 168.353,98.107 182.941,98.107 
		182.941,52.315 199.914,52.315 	"/>
	<linearGradient id="SVGID_3_" gradientUnits="userSpaceOnUse" x1="265.5508" y1="55.5654" x2="265.5508" y2="89.4079">
		<stop  offset="0" style="stop-color:#4A02A6"/>
		<stop  offset="1" style="stop-color:#7236C7"/>
	</linearGradient>
	<path fill="url(#SVGID_3_)" d="M241.284,98.107h14.586V86.731h-14.586V98.107z M287.917,46.966c-1.27-1.267-2.785-1.9-4.553-1.9
		h-30.748l-11.221,33.665h14.475V52.315h19.449v45.792h14.498V51.608C289.817,49.782,289.183,48.235,287.917,46.966z"/>
	<linearGradient id="SVGID_4_" gradientUnits="userSpaceOnUse" x1="350.7305" y1="71.0654" x2="350.7305" y2="100.9067">
		<stop  offset="0" style="stop-color:#4A02A6"/>
		<stop  offset="1" style="stop-color:#7236C7"/>
	</linearGradient>
	<path fill="url(#SVGID_4_)" d="M322.095,98.107h8.739v-7.16h-5.907L322.095,98.107z M345.42,98.107h19.449v-7.16H345.42V98.107z
		 M371.322,45.066c-1.768,0-3.285,0.634-4.553,1.9c-1.268,1.269-1.9,2.815-1.9,4.642v39.339h14.498V45.066H371.322z M345.42,45.066
		h-2.338l-3.957,9.999h6.295V45.066z M335.961,63.065l-5.127,12.955v14.927h14.586V63.065H335.961z"/>
</g>
<g>
	<linearGradient id="SVGID_5_" gradientUnits="userSpaceOnUse" x1="147.2236" y1="79.8345" x2="67.5576" y2="95.1675">
		<stop  offset="0" style="stop-color:#4A02A6"/>
		<stop  offset="1" style="stop-color:#7236C7"/>
	</linearGradient>
	<path fill="url(#SVGID_5_)" d="M79.912,148.497c0,0-3.613,0.957-5.529-4.645c0,0-30.736-93.318-31.105-94.572
		c-0.367-1.254-0.662-5.971,5.527-6.045c0,0,80.715-2.654,82.115-2.654c1.402,0,3.906,0.223,5.309,5.014l21.67,64.111L92.958,144
		L79.912,148.497z"/>
	<linearGradient id="SVGID_6_" gradientUnits="userSpaceOnUse" x1="219.5498" y1="143.1812" x2="97.5506" y2="164.4311">
		<stop  offset="0" style="stop-color:#4A02A6"/>
		<stop  offset="1" style="stop-color:#7236C7"/>
	</linearGradient>
	<path fill="url(#SVGID_6_)" d="M80.021,144.424v3.426c0,0-0.193,1.383,1.383,1.908c0,0,89.449,22.971,91.385,23.469
		c1.934,0.498,6.027,1.051,8.238-1.383l49.976-46.494c0,0,0.732-0.566,0.732-1.645l0.041-2.834L80.021,144.424z"/>
	<linearGradient id="SVGID_7_" gradientUnits="userSpaceOnUse" x1="89.8418" y1="151.646" x2="227.0914" y2="129.3961">
		<stop  offset="0" style="stop-color:#9EA3BD"/>
		<stop  offset="0.9636" style="stop-color:#B4CBD6"/>
	</linearGradient>
	<path fill="url(#SVGID_7_)" d="M151.781,112.672l6.412-3.17c0,0,1.182-0.59,3.318-0.146c0,0,61.142,9.414,63.576,9.748
		c2.432,0.332,7.297,0.994,6.689,1.768l-50.142,46.217c0,0-2.932,2.379-8.68,1.383c0,0-68.828-16.75-92.047-23.771
		c-0.717-0.217-2.986-1.215-0.166-2.986L151.781,112.672z"/>
	<g opacity="0.45">
		<path fill="#FFFFFF" d="M188.077,161.15c-38.112-15.363-35.449-39.762-31.952-50.625l-4.345,2.148l-71.039,29.041
			c-2.82,1.771-0.551,2.77,0.166,2.986c23.219,7.021,92.047,23.771,92.047,23.771c5.748,0.996,8.68-1.383,8.68-1.383L188.077,161.15
			z"/>
	</g>
	<linearGradient id="SVGID_8_" gradientUnits="userSpaceOnUse" x1="45.9609" y1="93.4751" x2="156.5894" y2="93.4751">
		<stop  offset="0" style="stop-color:#4A02A6"/>
		<stop  offset="1" style="stop-color:#7236C7"/>
	</linearGradient>
	<path fill="url(#SVGID_8_)" d="M80.132,144.368c0,0-2.357,1.18-3.168-0.957L46.298,49.575c0,0-1.658-4.441,2.379-4.605
		l82.703-2.711c0,0,2.322-0.111,3.096,2.711l22.113,64.717l-5.527,2.617v0.719l2.82,0.773l-58.381,24.326l-3.371-0.719l-9.676,3.703
		C82.455,141.106,79.275,142.045,80.132,144.368z"/>
	<path fill="#FFFFFF" d="M50.941,50.204c-0.363,0.018-0.57,0.318-0.459,0.664l27.973,86.898c0.111,0.348,0.48,0.521,0.82,0.387
		l74.395-29.219c0.34-0.133,0.521-0.525,0.406-0.873L133.49,46.37c-0.115-0.344-0.51-0.611-0.873-0.592L50.941,50.204z"/>
	<g>
		<path fill="#FFFFFF" d="M168.408,139.137c-0.357-0.072-0.398-0.295-0.094-0.49l16.465-10.615c0.307-0.197,0.855-0.311,1.213-0.25
			l25.283,4.203c0.359,0.061,0.428,0.305,0.152,0.543l-13.921,12.014c-0.275,0.24-0.795,0.375-1.152,0.301L168.408,139.137z"/>
	</g>
	<path fill="#3F4A5A" d="M211.274,131.985l-25.283-4.203c-0.357-0.061-0.906,0.053-1.213,0.25l-16.465,10.615
		c-0.127,0.082,0.859,0.168,0.848,0.246l16.105-10.252c0.307-0.195,0.854-0.309,1.213-0.25l24.234,4.205
		c0.279,0.047,0.381,0.203,0.285,0.383l0.428-0.451C211.702,132.29,211.634,132.045,211.274,131.985z"/>
	<polygon fill="#FFFFFF" points="102.32,140.092 100.183,139.208 159.375,112.672 191.734,118.348 140.724,149.233 	"/>
	<g>
		<path fill="#1E2E5C" d="M187.347,118.368l-1.807,1.16h-0.369l-1.068,0.756l-0.119-0.508l-2.295-0.543l1.604-1.254l-4.258-0.848
			l-0.57,0.387l-0.883-0.146v-0.389l-9.473-1.619l-0.885,0.514h-0.406v-0.607l-3.906-0.756l-0.83,0.535h-0.553v-0.664l-2.285-0.258
			l-2.193,0.977l-0.055,0.369l-0.719-0.055l-2.543,1.16l-0.074,0.479l-0.865-0.166l-2.322,1.088l-0.166,0.48l-0.846-0.092
			l-2.693,1.27l-0.127,0.424l-0.959-0.018l-2.617,1.217v0.588l-0.957-0.203l-2.895,1.383v0.59l-0.957-0.201l-3.133,1.324v0.684
			l-0.904-0.258l-3.133,1.418v0.664l-1.049-0.166l-3.301,1.475v0.645l-1.123-0.148l-3.389,1.566v0.627l-1.236-0.109l-3.576,1.693
			v0.555l-1.361,0.018l-3.393,1.604v0.518l-0.479,0.238l-1.031-0.072l-3.594,1.639v0.469l-0.982,0.43l-0.787-0.051l-3.98,1.805
			l0.551,0.119l6.563,1.584l1.47,0.372l50.108-24.655l1.309,0.137l-49.148,25.048l2.48,0.599l2.25,0.585l51.154-26.411l1.316,0.125
			l-50.167,26.8l0.794,0.192l3.885,0.956l51.295-27.544l1.326,0.109l-50.372,27.956l12.522,3.022l3.316-1.861l-0.166-0.572
			l0.736-0.607l0.848,0.295l3.17-1.916l-0.055-0.59l0.406-0.313l1.014,0.293l3.096-1.861l-0.092-0.588l0.496-0.369l0.939,0.35
			l3.723-2.414l-0.055-0.553l0.533-0.313l0.867,0.332l16.826-10.045v-0.553l0.828,0.129l3.004-1.842v-0.516l0.885-0.02l1.99-1.234
			l-0.094-0.59l0.939,0.111l2.064-1.289l-0.238-0.535l1.086,0.037l1.918-1.199l-0.223-0.35l0.811,0.064l1.816-1.078v-0.609
			L187.347,118.368z M179.753,122.641v0.451l-0.23,0.24l-3.334-0.803l-35.631,20.217l-1.604-0.221l37.961-21.469l0.959,0.109
			l1.143-0.682l1.068,0.23l-0.238,0.23l1.455,0.369l0.055,0.33L179.753,122.641z"/>
	</g>
	<g opacity="0.15">
		<path fill="#B4CBD6" d="M154.076,108.061L133.49,46.37c-0.115-0.344-0.51-0.611-0.873-0.592l-5.238,0.283
			c8.586,51.135-29.703,81.117-44.873,90.824l71.164-27.951C154.009,108.801,154.191,108.409,154.076,108.061z"/>
	</g>
	
		<rect x="118.134" y="139.382" transform="matrix(0.9394 0.3429 -0.3429 0.9394 55.3127 -33.0304)" fill="#FFFFFF" width="5.861" height="1.05"/>
	
		<rect x="129.058" y="139.187" transform="matrix(0.9393 0.3431 -0.3431 0.9393 55.9431 -36.8034)" fill="#FFFFFF" width="5.864" height="1.048"/>
	<polygon fill="#FFFFFF" points="169.435,121.999 163.4,120.649 164.349,119.891 169.814,121.165 	"/>
	<linearGradient id="SVGID_9_" gradientUnits="userSpaceOnUse" x1="121.4937" y1="61.5059" x2="61.494" y2="68.6728">
		<stop  offset="0" style="stop-color:#4A02A6"/>
		<stop  offset="1" style="stop-color:#7236C7"/>
	</linearGradient>
	<polygon fill="url(#SVGID_9_)" points="60.197,81.043 141.443,70.2 135.404,52.11 52.623,57.516 	"/>
	<linearGradient id="SVGID_10_" gradientUnits="userSpaceOnUse" x1="93.9956" y1="86.1772" x2="66.1627" y2="91.1773">
		<stop  offset="0" style="stop-color:#00A894"/>
		<stop  offset="1" style="stop-color:#4AC0BC"/>
	</linearGradient>
	<path fill="url(#SVGID_10_)" d="M66.5,84.116c-0.559,0.031-0.898,0.461-0.756,0.951l4.146,11.418
		c0.143,0.492,0.717,0.852,1.273,0.803l17.521-3.832c0.557-0.051,0.904-0.494,0.77-0.988l-3.277-10.434
		c-0.135-0.494-0.701-0.869-1.26-0.838L66.5,84.116z"/>
	<linearGradient id="SVGID_11_" gradientUnits="userSpaceOnUse" x1="71.9199" y1="105.8491" x2="94.8315" y2="105.8491">
		<stop  offset="0" style="stop-color:#EC2224"/>
		<stop  offset="1" style="stop-color:#A80000"/>
	</linearGradient>
	<path fill="url(#SVGID_11_)" d="M72.724,101.141c-0.568,0.031-0.916,0.469-0.771,0.969l3.9,11.652
		c0.146,0.502,0.73,0.869,1.299,0.82l16.865-5.482c0.568-0.051,0.922-0.502,0.785-1.008l-3.014-10.125
		c-0.139-0.502-0.717-0.885-1.285-0.854L72.724,101.141z"/>
	<linearGradient id="SVGID_12_" gradientUnits="userSpaceOnUse" x1="79.0254" y1="126.1899" x2="99.6925" y2="118.5229">
		<stop  offset="0" style="stop-color:#F8AE19"/>
		<stop  offset="1" style="stop-color:#DE8F00"/>
	</linearGradient>
	<path fill="url(#SVGID_12_)" d="M79.191,118.438c-0.598,0.033-0.961,0.48-0.809,0.988l4.096,11.887
		c0.152,0.512,0.768,0.887,1.363,0.836l16.555-6.631c0.598-0.053,0.967-0.514,0.824-1.029l-3.217-10.861
		c-0.145-0.512-0.75-0.902-1.35-0.871L79.191,118.438z"/>
	<g>
		<linearGradient id="SVGID_13_" gradientUnits="userSpaceOnUse" x1="143.062" y1="71.0581" x2="86.8954" y2="86.058">
			<stop  offset="0" style="stop-color:#4C4C4C"/>
			<stop  offset="1" style="stop-color:#8B949C"/>
		</linearGradient>
		<path fill="url(#SVGID_13_)" d="M89.503,82.903c-0.125,0-0.236-0.092-0.258-0.221c-0.023-0.143,0.074-0.277,0.217-0.301
			l51.781-8.389c0.145-0.025,0.277,0.074,0.301,0.217c0.025,0.143-0.072,0.277-0.215,0.301l-51.783,8.389
			C89.533,82.901,89.519,82.903,89.503,82.903z"/>
		<linearGradient id="SVGID_14_" gradientUnits="userSpaceOnUse" x1="143.1704" y1="71.46" x2="87.0027" y2="86.4602">
			<stop  offset="0" style="stop-color:#4C4C4C"/>
			<stop  offset="1" style="stop-color:#8B949C"/>
		</linearGradient>
		<path fill="url(#SVGID_14_)" d="M90.093,84.313c-0.127,0-0.238-0.092-0.258-0.221c-0.023-0.143,0.072-0.277,0.217-0.301
			l30.02-4.852c0.143-0.025,0.277,0.074,0.301,0.219c0.023,0.141-0.072,0.277-0.217,0.299l-30.02,4.852
			C90.123,84.311,90.107,84.313,90.093,84.313z"/>
		<linearGradient id="SVGID_15_" gradientUnits="userSpaceOnUse" x1="143.708" y1="73.4741" x2="87.5404" y2="88.4743">
			<stop  offset="0" style="stop-color:#4C4C4C"/>
			<stop  offset="1" style="stop-color:#8B949C"/>
		</linearGradient>
		<path fill="url(#SVGID_15_)" d="M90.587,85.721c-0.127,0-0.236-0.09-0.258-0.219c-0.025-0.143,0.07-0.277,0.215-0.303
			l44.963-7.602c0.141-0.025,0.277,0.072,0.301,0.215s-0.072,0.277-0.215,0.301L90.63,85.717
			C90.617,85.719,90.601,85.721,90.587,85.721z"/>
		<linearGradient id="SVGID_16_" gradientUnits="userSpaceOnUse" x1="144.1475" y1="75.1216" x2="87.9812" y2="90.1214">
			<stop  offset="0" style="stop-color:#4C4C4C"/>
			<stop  offset="1" style="stop-color:#8B949C"/>
		</linearGradient>
		<path fill="url(#SVGID_16_)" d="M91.208,87.131c-0.125,0-0.236-0.09-0.258-0.217c-0.025-0.145,0.07-0.279,0.213-0.305
			l51.781-9.045c0.16-0.023,0.279,0.07,0.305,0.213s-0.07,0.277-0.215,0.303l-51.781,9.047
			C91.238,87.129,91.222,87.131,91.208,87.131z"/>
		<linearGradient id="SVGID_17_" gradientUnits="userSpaceOnUse" x1="144.2788" y1="75.6162" x2="88.1126" y2="90.616">
			<stop  offset="0" style="stop-color:#4C4C4C"/>
			<stop  offset="1" style="stop-color:#8B949C"/>
		</linearGradient>
		<path fill="url(#SVGID_17_)" d="M91.701,88.637c-0.125,0-0.236-0.088-0.258-0.215c-0.025-0.143,0.068-0.279,0.211-0.305
			l29.234-5.244c0.143-0.023,0.279,0.07,0.305,0.213s-0.068,0.279-0.213,0.305l-29.234,5.242
			C91.732,88.637,91.716,88.637,91.701,88.637z"/>
	</g>
	<g>
		<path fill="#FFFFFF" d="M59.015,72.151c-0.162,0-0.303-0.121-0.32-0.285c-0.02-0.178,0.107-0.338,0.283-0.357l76.637-8.557
			c0.188-0.018,0.336,0.107,0.355,0.283c0.021,0.178-0.107,0.336-0.283,0.357L59.05,72.149
			C59.039,72.151,59.027,72.151,59.015,72.151z"/>
		<path fill="#FFFFFF" d="M59.886,73.588c-0.162,0-0.301-0.121-0.318-0.285c-0.021-0.178,0.107-0.336,0.283-0.355L104.283,68
			c0.191-0.016,0.336,0.107,0.355,0.283c0.02,0.178-0.107,0.338-0.285,0.357l-44.432,4.945
			C59.91,73.588,59.898,73.588,59.886,73.588z"/>
		<path fill="#FFFFFF" d="M60.615,75.026c-0.16,0-0.301-0.121-0.318-0.285c-0.021-0.176,0.105-0.336,0.281-0.357l66.547-7.754
			c0.195-0.025,0.336,0.107,0.357,0.283c0.02,0.176-0.105,0.336-0.283,0.355l-66.547,7.756
			C60.64,75.026,60.626,75.026,60.615,75.026z"/>
		<path fill="#FFFFFF" d="M61.535,76.463c-0.16,0-0.299-0.119-0.318-0.283c-0.021-0.176,0.104-0.336,0.281-0.357l76.637-9.227
			c0.178-0.025,0.338,0.105,0.357,0.281c0.023,0.176-0.104,0.336-0.281,0.357l-76.637,9.227
			C61.56,76.463,61.548,76.463,61.535,76.463z"/>
		<path fill="#FFFFFF" d="M62.263,78.002c-0.16,0-0.299-0.121-0.318-0.283c-0.021-0.176,0.104-0.338,0.279-0.359l71.779-8.869
			c0.189-0.023,0.338,0.104,0.359,0.279s-0.104,0.338-0.279,0.359l-71.779,8.869C62.291,78,62.277,78.002,62.263,78.002z"/>
	</g>
	<g>
		<linearGradient id="SVGID_18_" gradientUnits="userSpaceOnUse" x1="147.0337" y1="85.9297" x2="90.8666" y2="100.9297">
			<stop  offset="0" style="stop-color:#4C4C4C"/>
			<stop  offset="1" style="stop-color:#8B949C"/>
		</linearGradient>
		<path fill="url(#SVGID_18_)" d="M95.283,99.184c-0.119,0-0.227-0.082-0.256-0.203c-0.031-0.141,0.057-0.281,0.195-0.314
			l48.66-11.34c0.145-0.031,0.281,0.057,0.314,0.197s-0.055,0.281-0.195,0.314l-48.658,11.34
			C95.324,99.182,95.302,99.184,95.283,99.184z"/>
		<linearGradient id="SVGID_19_" gradientUnits="userSpaceOnUse" x1="147.2969" y1="86.9175" x2="91.1312" y2="101.9171">
			<stop  offset="0" style="stop-color:#4C4C4C"/>
			<stop  offset="1" style="stop-color:#8B949C"/>
		</linearGradient>
		<path fill="url(#SVGID_19_)" d="M95.712,100.622c-0.119,0-0.227-0.082-0.256-0.203c-0.033-0.141,0.055-0.281,0.195-0.314
			l20.504-4.807c0.146-0.037,0.281,0.055,0.314,0.195s-0.055,0.283-0.195,0.314l-20.502,4.807
			C95.751,100.62,95.732,100.622,95.712,100.622z"/>
		<linearGradient id="SVGID_20_" gradientUnits="userSpaceOnUse" x1="147.7373" y1="88.5635" x2="91.5707" y2="103.5634">
			<stop  offset="0" style="stop-color:#4C4C4C"/>
			<stop  offset="1" style="stop-color:#8B949C"/>
		</linearGradient>
		<path fill="url(#SVGID_20_)" d="M96.074,102.059c-0.119,0-0.227-0.08-0.256-0.201c-0.033-0.141,0.053-0.281,0.193-0.316
			l43.684-10.537c0.141-0.031,0.281,0.053,0.314,0.193c0.035,0.141-0.053,0.283-0.193,0.316l-43.682,10.537
			C96.115,102.057,96.093,102.059,96.074,102.059z"/>
		<linearGradient id="SVGID_21_" gradientUnits="userSpaceOnUse" x1="148.1079" y1="89.9526" x2="91.9414" y2="104.9525">
			<stop  offset="0" style="stop-color:#4C4C4C"/>
			<stop  offset="1" style="stop-color:#8B949C"/>
		</linearGradient>
		<path fill="url(#SVGID_21_)" d="M96.527,103.497c-0.117,0-0.225-0.08-0.254-0.199c-0.035-0.141,0.051-0.283,0.191-0.318
			l48.658-12.006c0.139-0.037,0.281,0.051,0.316,0.191s-0.051,0.283-0.191,0.316l-48.658,12.008
			C96.57,103.493,96.548,103.497,96.527,103.497z"/>
		<linearGradient id="SVGID_22_" gradientUnits="userSpaceOnUse" x1="148.4731" y1="91.3184" x2="92.3057" y2="106.3185">
			<stop  offset="0" style="stop-color:#4C4C4C"/>
			<stop  offset="1" style="stop-color:#8B949C"/>
		</linearGradient>
		<path fill="url(#SVGID_22_)" d="M96.886,105.036c-0.117,0-0.225-0.08-0.254-0.199c-0.037-0.141,0.049-0.281,0.189-0.318
			l49.217-12.496c0.133-0.033,0.283,0.049,0.318,0.189c0.037,0.141-0.049,0.283-0.189,0.318l-49.217,12.498
			C96.929,105.032,96.908,105.036,96.886,105.036z"/>
	</g>
	<g>
		<linearGradient id="SVGID_23_" gradientUnits="userSpaceOnUse" x1="150.7227" y1="99.7432" x2="94.5555" y2="114.7432">
			<stop  offset="0" style="stop-color:#4C4C4C"/>
			<stop  offset="1" style="stop-color:#8B949C"/>
		</linearGradient>
		<path fill="url(#SVGID_23_)" d="M101.267,114.647c-0.113,0-0.221-0.074-0.26-0.189c-0.047-0.143,0.031-0.299,0.176-0.346
			l45.705-15.049c0.145-0.049,0.301,0.031,0.348,0.174c0.047,0.145-0.033,0.299-0.176,0.346l-45.707,15.051
			C101.326,114.641,101.296,114.647,101.267,114.647z"/>
		<linearGradient id="SVGID_24_" gradientUnits="userSpaceOnUse" x1="151.1353" y1="101.2876" x2="94.9682" y2="116.2876">
			<stop  offset="0" style="stop-color:#4C4C4C"/>
			<stop  offset="1" style="stop-color:#8B949C"/>
		</linearGradient>
		<path fill="url(#SVGID_24_)" d="M101.589,116.141c-0.113,0-0.221-0.072-0.26-0.188c-0.047-0.143,0.029-0.299,0.174-0.346
			l38.482-12.973c0.137-0.049,0.299,0.027,0.348,0.172c0.049,0.143-0.029,0.297-0.174,0.346l-38.482,12.973
			C101.648,116.135,101.619,116.141,101.589,116.141z"/>
		<linearGradient id="SVGID_25_" gradientUnits="userSpaceOnUse" x1="151.4873" y1="102.6069" x2="95.3209" y2="117.6068">
			<stop  offset="0" style="stop-color:#4C4C4C"/>
			<stop  offset="1" style="stop-color:#8B949C"/>
		</linearGradient>
		<path fill="url(#SVGID_25_)" d="M101.859,117.637c-0.113,0-0.221-0.072-0.26-0.188c-0.049-0.143,0.027-0.299,0.172-0.348
			l41.979-14.213c0.143-0.049,0.299,0.027,0.348,0.172c0.049,0.143-0.027,0.299-0.172,0.346l-41.979,14.215
			C101.917,117.631,101.888,117.637,101.859,117.637z"/>
		<linearGradient id="SVGID_26_" gradientUnits="userSpaceOnUse" x1="151.8169" y1="103.8379" x2="95.6497" y2="118.8379">
			<stop  offset="0" style="stop-color:#4C4C4C"/>
			<stop  offset="1" style="stop-color:#8B949C"/>
		</linearGradient>
		<path fill="url(#SVGID_26_)" d="M102.201,119.131c-0.115,0-0.221-0.07-0.26-0.184c-0.049-0.145,0.025-0.299,0.17-0.35
			l45.707-15.744c0.141-0.051,0.299,0.027,0.348,0.17s-0.025,0.299-0.17,0.348l-45.707,15.744
			C102.259,119.127,102.23,119.131,102.201,119.131z"/>
		<linearGradient id="SVGID_27_" gradientUnits="userSpaceOnUse" x1="152.2622" y1="105.5068" x2="96.096" y2="120.5066">
			<stop  offset="0" style="stop-color:#4C4C4C"/>
			<stop  offset="1" style="stop-color:#8B949C"/>
		</linearGradient>
		<path fill="url(#SVGID_27_)" d="M102.468,120.733c-0.113,0-0.219-0.07-0.258-0.184c-0.051-0.143,0.023-0.299,0.166-0.35
			l38.656-13.631c0.137-0.049,0.299,0.023,0.348,0.166c0.051,0.145-0.023,0.299-0.166,0.35l-38.656,13.631
			C102.529,120.727,102.5,120.733,102.468,120.733z"/>
	</g>
	<path fill="#FFFFFF" d="M58.953,65.051c-0.762,0-1.539-0.527-1.809-1.227l-0.822-2.15c-0.158-0.414-0.125-0.846,0.09-1.184
		s0.592-0.551,1.035-0.582l27.445-1.947c0,0,0.008,0,0.012,0c0.879,0,1.682,0.475,2.029,1.125l0.932,1.736
		c0.215,0.398,0.23,0.828,0.043,1.174c-0.188,0.348-0.555,0.57-1.008,0.611L58.953,65.051z M85.015,59.006l-27.494,1.949
		c-0.107,0.008-0.189,0.043-0.225,0.098c-0.035,0.057-0.033,0.146,0.004,0.246l0.824,2.15c0.115,0.299,0.494,0.553,0.828,0.553
		v0.525L59.007,64l27.801-2.438c0.109-0.01,0.166-0.045,0.178-0.063c0.01-0.02,0.006-0.086-0.045-0.182l-0.932-1.736
		C85.845,59.274,85.38,59.006,85.015,59.006z"/>
	<polygon opacity="0.12" fill="#5A636B" points="219.362,122.387 241.177,126.315 177.041,184.778 70.751,150.934 80.021,147.85 	
		"/>
</g>
<g>
	<path d="M245.457,107.906h-2.68v14.104h-2.42v-14.104h-2.68v-2.149h7.779V107.906z"/>
	<path d="M258.414,122.009h-2.408l-0.488-3.084h-3.043l-0.488,3.084h-2.4v-0.042l3.148-16.232h2.555L258.414,122.009z
		 M255.174,116.837l-1.184-7.332l-1.193,7.332H255.174z"/>
	<path d="M271.24,105.849l-2.148,6.793c-0.264,0.671-0.621,1.803-1.07,3.396v5.972h-2.441v-5.972
		c-0.109-0.54-0.27-1.111-0.477-1.714c-0.367-1.031-0.564-1.592-0.592-1.682l-2.141-6.793c-0.006-0.007-0.006-0.037,0-0.093h2.504
		l1.941,7.062l1.932-7.062h2.492C271.24,105.804,271.24,105.835,271.24,105.849z"/>
	<path d="M283.422,122.009h-6.387v-16.253h2.43v14.082h3.957V122.009z"/>
	<path d="M297.506,120.524c0,0.99-0.49,1.485-1.475,1.485h-5.275c-0.963,0-1.443-0.495-1.443-1.485v-13.272
		c0-0.997,0.48-1.495,1.443-1.495h5.275c0.984,0,1.475,0.498,1.475,1.495V120.524z M295.076,119.921v-12.078h-3.334v12.078H295.076z
		"/>
	<path d="M311.969,122.009h-2.533l-2.68-7.55v-1.465h2.389v-5.151h-3.064v14.166h-2.43v-16.253h6.449
		c0.977,0,1.465,0.498,1.465,1.495v5.909c0,0.686-0.232,1.129-0.695,1.329c-0.25,0.104-0.775,0.156-1.58,0.156L311.969,122.009z"/>
	<path d="M322.295,116.837h-4.955v-2.171h4.955V116.837z"/>
	<path d="M338.182,122.009h-2.338v-8.018c0-0.422,0.049-1.011,0.146-1.766l-2.098,8.298h-1.236l-2.107-8.298
		c0.096,0.769,0.145,1.357,0.145,1.766v8.018h-2.336v-16.253h2.295l2.555,8.983c0.027,0.097,0.049,0.343,0.063,0.737
		c0-0.173,0.02-0.419,0.063-0.737l2.555-8.983h2.295V122.009z"/>
	<path d="M352.838,122.009h-2.408l-0.488-3.084h-3.043l-0.488,3.084h-2.4v-0.042l3.148-16.232h2.555L352.838,122.009z
		 M349.598,116.837l-1.184-7.332l-1.193,7.332H349.598z"/>
	<path d="M366.789,118.946c0,0.955-0.283,1.705-0.852,2.248c-0.568,0.544-1.332,0.815-2.295,0.815h-4.953v-16.253h4.953
		c0.963,0,1.727,0.275,2.295,0.825c0.568,0.551,0.852,1.304,0.852,2.259V118.946z M364.35,118.541v-9.337
		c0-0.906-0.475-1.36-1.424-1.36h-1.807v12.078h1.744C363.854,119.921,364.35,119.461,364.35,118.541z"/>
	<path d="M379.629,122.009h-6.74v-16.253h6.678v2.149h-4.248v4.746h3.656v2.108h-3.656v5.1h4.311V122.009z"/>
</g>
<rect x="330.834" y="45.067" fill="#F8AE19" width="14.586" height="9.998"/>
<rect x="241.284" y="86.731" fill="#EC2224" width="14.586" height="11.377"/>
<g>
	<path d="M268.391,127.497l-2.379,16.273h-2.379l-1.453-9.212c-0.014-0.332-0.041-0.827-0.084-1.484
		c0,0.332-0.027,0.827-0.082,1.484l-1.443,9.212h-2.389l-2.379-16.273h2.461l1.258,9.638c0.02,0.332,0.047,0.827,0.082,1.484
		c0.008-0.332,0.039-0.827,0.094-1.484l1.402-9.638h1.994l1.402,9.638c0.02,0.332,0.051,0.827,0.092,1.484
		c0.008-0.332,0.035-0.827,0.084-1.484l1.256-9.638H268.391z"/>
	<path d="M280.975,143.75h-6.74v-16.253h6.678v2.149h-4.248v4.746h3.656v2.108h-3.656v5.1h4.311V143.75z"/>
	<path d="M294.941,142.264c0,0.99-0.494,1.485-1.484,1.485h-6.49v-16.253h6.449c0.961,0,1.443,0.498,1.443,1.495v4.186
		c0,0.554-0.174,0.983-0.52,1.288c-0.049,0.041-0.471,0.308-1.268,0.799c0.824,0.506,1.26,0.783,1.309,0.831
		c0.375,0.326,0.561,0.772,0.561,1.34V142.264z M292.439,133.478v-3.936h-3.043v4.767h1.869L292.439,133.478z M292.502,141.704
		v-4.632l-1.195-0.789h-1.91v5.421H292.502z"/>
	<path d="M308.867,142.264c0,0.99-0.492,1.485-1.475,1.485H302.5c-0.977,0-1.465-0.495-1.465-1.485v-3.873h2.432v3.313h2.969v-3.188
		l-4.871-4.611c-0.352-0.339-0.529-0.771-0.529-1.298v-3.614c0-0.997,0.488-1.495,1.465-1.495h4.893
		c0.982,0,1.475,0.491,1.475,1.475v3.635h-2.432v-3.063h-2.969v2.938l4.869,4.591c0.354,0.332,0.531,0.772,0.531,1.319V142.264z"/>
	<path d="M317.449,143.75h-2.43v-16.253h2.43V143.75z"/>
	<path d="M331.029,129.646h-2.68v14.104h-2.42v-14.104h-2.68v-2.149h7.779V129.646z"/>
	<path d="M343.551,143.75h-6.74v-16.253h6.678v2.149h-4.248v4.746h3.656v2.108h-3.656v5.1h4.311V143.75z"/>
	<path d="M357.354,142.264c0,0.99-0.492,1.485-1.475,1.485h-4.893c-0.977,0-1.465-0.495-1.465-1.485v-3.873h2.432v3.313h2.969
		v-3.188l-4.871-4.611c-0.352-0.339-0.529-0.771-0.529-1.298v-3.614c0-0.997,0.488-1.495,1.465-1.495h4.893
		c0.982,0,1.475,0.491,1.475,1.475v3.635h-2.432v-3.063h-2.969v2.938l4.869,4.591c0.354,0.332,0.531,0.772,0.531,1.319V142.264z"/>
</g>
<rect x="151.381" y="45.066" fill="#4AC0BC" width="6.854" height="7.249"/>
<g>
	<polygon fill="#FFFFFF" points="350.59,45.396 325.048,46.107 322.083,48.264 322.083,79.012 322.813,90.32 325.652,92.137 
		349.363,92.137 352.938,88.97 352.701,47.138 	"/>
	<g>
		<g>
			<g>
				<path fill="#1E2E5C" d="M349.363,45.095h-23.711c-1.968,0-3.569,1.42-3.569,3.169V88.97c0,1.747,1.602,3.167,3.569,3.167h23.711
					c1.971,0,3.574-1.42,3.574-3.167V48.264C352.938,46.515,351.334,45.095,349.363,45.095z M351.873,88.97
					c0,1.224-1.125,2.224-2.51,2.224h-23.711c-1.38,0-2.507-1-2.507-2.224V48.264c0-1.229,1.127-2.226,2.507-2.226h23.711
					c1.385,0,2.51,0.997,2.51,2.226V88.97z"/>
			</g>
			<rect x="324.388" y="49.476" fill="#EA2427" width="26.202" height="7.819"/>
			<rect x="324.388" y="83.118" fill="#EA2427" width="26.202" height="2.751"/>
			<path fill="#1E2E5C" d="M339.639,88.429c0,1.041-0.953,1.891-2.129,1.891s-2.127-0.85-2.127-1.891
				c0-1.043,0.951-1.887,2.127-1.887S339.639,87.386,339.639,88.429z"/>
			<rect x="324.417" y="58.102" fill="#F8AD19" width="7.524" height="4.357"/>
			<rect x="324.417" y="63.501" fill="#4AC0BC" width="7.524" height="4.358"/>
			<rect x="324.417" y="68.903" fill="#6053A2" width="7.524" height="4.356"/>
			<rect x="333.506" y="58.102" fill="#6B2E8E" width="17.084" height="4.357"/>
			<rect x="333.201" y="63.509" fill="#B8E4FA" width="17.389" height="18.806"/>
			<rect x="324.417" y="74.31" fill="#588FCB" width="7.524" height="8.099"/>
		</g>
		<path fill="#1E2E5C" d="M341.688,45.396h-7.979l-0.277,0.615c0,0,1.553,0.141,2.457,0.8c0.881,0.643,1.012,0.944,1.809,0.991
			c0,0,0.588,0.049,1.541-0.754c0.959-0.801,1.535-1.037,2.6-1.085L341.688,45.396z M337.74,47.143
			c-0.307,0-0.557-0.223-0.557-0.498c0-0.271,0.25-0.493,0.557-0.493c0.311,0,0.561,0.222,0.561,0.493
			C338.301,46.92,338.051,47.143,337.74,47.143z"/>
	</g>
</g>
</svg>
